<mxfile host="app.diagrams.net" modified="2024-06-19T09:38:21.371Z" agent="Mozilla/5.0 (X11; Linux x86_64) AppleWebKit/537.36 (KHTML, like Gecko) Chrome/125.0.0.0 Safari/537.36" etag="71-osq-BvOxYYuhMMhXa" version="24.5.5" type="github">
  <diagram name="Page-1" id="Vl-lDc0opQZrcM1Lta2W">
    <mxGraphModel dx="2195" dy="1957" grid="1" gridSize="10" guides="1" tooltips="1" connect="1" arrows="1" fold="1" page="1" pageScale="1" pageWidth="827" pageHeight="1169" math="0" shadow="0">
      <root>
        <mxCell id="0" />
        <mxCell id="1" parent="0" />
        <mxCell id="yLj16Qclz6j7cI5NMbGW-4" style="edgeStyle=orthogonalEdgeStyle;rounded=0;orthogonalLoop=1;jettySize=auto;html=1;exitX=0.5;exitY=0.5;exitDx=0;exitDy=0;exitPerimeter=0;endArrow=none;endFill=0;" edge="1" parent="1" source="-Z-gAmvK2gQ08b9_LZs0-1">
          <mxGeometry relative="1" as="geometry">
            <mxPoint x="80" y="-690" as="targetPoint" />
          </mxGeometry>
        </mxCell>
        <mxCell id="-Z-gAmvK2gQ08b9_LZs0-1" value="Utilisateur&lt;div&gt;&lt;br&gt;&lt;/div&gt;" style="shape=umlActor;verticalLabelPosition=bottom;verticalAlign=top;html=1;" parent="1" vertex="1">
          <mxGeometry x="10" y="-720" width="30" height="60" as="geometry" />
        </mxCell>
        <mxCell id="yLj16Qclz6j7cI5NMbGW-5" style="edgeStyle=orthogonalEdgeStyle;rounded=0;orthogonalLoop=1;jettySize=auto;html=1;exitX=0.5;exitY=0.5;exitDx=0;exitDy=0;exitPerimeter=0;endArrow=none;endFill=0;" edge="1" parent="1" source="-Z-gAmvK2gQ08b9_LZs0-6">
          <mxGeometry relative="1" as="geometry">
            <mxPoint x="80" y="-320" as="targetPoint" />
          </mxGeometry>
        </mxCell>
        <mxCell id="-Z-gAmvK2gQ08b9_LZs0-6" value="Admin&lt;div&gt;&lt;br&gt;&lt;/div&gt;" style="shape=umlActor;verticalLabelPosition=bottom;verticalAlign=top;html=1;" parent="1" vertex="1">
          <mxGeometry x="10" y="-350" width="30" height="60" as="geometry" />
        </mxCell>
        <mxCell id="-Z-gAmvK2gQ08b9_LZs0-7" value="AjoutÃ© son email a la newletter" style="ellipse;whiteSpace=wrap;html=1;" parent="1" vertex="1">
          <mxGeometry x="240" y="-890" width="140" height="70" as="geometry" />
        </mxCell>
        <mxCell id="-Z-gAmvK2gQ08b9_LZs0-10" value="" style="endArrow=none;endFill=0;html=1;rounded=0;entryX=0;entryY=0.5;entryDx=0;entryDy=0;" parent="1" target="-Z-gAmvK2gQ08b9_LZs0-7" edge="1">
          <mxGeometry width="160" relative="1" as="geometry">
            <mxPoint x="80" y="-710" as="sourcePoint" />
            <mxPoint x="240" y="-800" as="targetPoint" />
            <Array as="points">
              <mxPoint x="80" y="-855" />
            </Array>
          </mxGeometry>
        </mxCell>
        <mxCell id="-Z-gAmvK2gQ08b9_LZs0-11" value="Trouve le garage" style="ellipse;whiteSpace=wrap;html=1;" parent="1" vertex="1">
          <mxGeometry x="240" y="-790" width="140" height="70" as="geometry" />
        </mxCell>
        <mxCell id="-Z-gAmvK2gQ08b9_LZs0-12" value="" style="endArrow=none;endFill=0;endSize=12;html=1;rounded=0;" parent="1" edge="1">
          <mxGeometry width="160" relative="1" as="geometry">
            <mxPoint x="80" y="-760" as="sourcePoint" />
            <mxPoint x="240" y="-760" as="targetPoint" />
          </mxGeometry>
        </mxCell>
        <mxCell id="-Z-gAmvK2gQ08b9_LZs0-13" value="Consulte le catalogue" style="ellipse;whiteSpace=wrap;html=1;" parent="1" vertex="1">
          <mxGeometry x="250" y="-690" width="140" height="70" as="geometry" />
        </mxCell>
        <mxCell id="-Z-gAmvK2gQ08b9_LZs0-14" value="" style="endArrow=none;endFill=0;endSize=12;html=1;rounded=0;entryX=0;entryY=0.5;entryDx=0;entryDy=0;" parent="1" target="-Z-gAmvK2gQ08b9_LZs0-13" edge="1">
          <mxGeometry width="160" relative="1" as="geometry">
            <mxPoint x="80" y="-710" as="sourcePoint" />
            <mxPoint x="250" y="-660" as="targetPoint" />
            <Array as="points">
              <mxPoint x="80" y="-690" />
              <mxPoint x="80" y="-655" />
            </Array>
          </mxGeometry>
        </mxCell>
        <mxCell id="-Z-gAmvK2gQ08b9_LZs0-15" value="Consulte les ocassion" style="ellipse;whiteSpace=wrap;html=1;" parent="1" vertex="1">
          <mxGeometry x="250" y="-584" width="140" height="70" as="geometry" />
        </mxCell>
        <mxCell id="-Z-gAmvK2gQ08b9_LZs0-16" value="" style="endArrow=none;endFill=0;endSize=12;html=1;rounded=0;" parent="1" edge="1">
          <mxGeometry width="160" relative="1" as="geometry">
            <mxPoint x="80" y="-710" as="sourcePoint" />
            <mxPoint x="250" y="-550" as="targetPoint" />
            <Array as="points">
              <mxPoint x="80" y="-550" />
            </Array>
          </mxGeometry>
        </mxCell>
        <mxCell id="-Z-gAmvK2gQ08b9_LZs0-17" value="Filtre les motos&lt;div&gt;par marque et permis&lt;/div&gt;&lt;div&gt;moto&lt;/div&gt;" style="ellipse;whiteSpace=wrap;html=1;" parent="1" vertex="1">
          <mxGeometry x="485" y="-584" width="140" height="70" as="geometry" />
        </mxCell>
        <mxCell id="-Z-gAmvK2gQ08b9_LZs0-18" value="" style="endArrow=open;endFill=1;endSize=12;html=1;rounded=0;exitX=1;exitY=0.5;exitDx=0;exitDy=0;entryX=0;entryY=0.5;entryDx=0;entryDy=0;dashed=1;" parent="1" source="-Z-gAmvK2gQ08b9_LZs0-15" target="-Z-gAmvK2gQ08b9_LZs0-17" edge="1">
          <mxGeometry width="160" relative="1" as="geometry">
            <mxPoint x="105" y="-680" as="sourcePoint" />
            <mxPoint x="239" y="-475" as="targetPoint" />
          </mxGeometry>
        </mxCell>
        <mxCell id="-Z-gAmvK2gQ08b9_LZs0-19" value="&quot;Extends&quot;" style="edgeLabel;html=1;align=center;verticalAlign=middle;resizable=0;points=[];" parent="-Z-gAmvK2gQ08b9_LZs0-18" vertex="1" connectable="0">
          <mxGeometry x="0.125" y="-2" relative="1" as="geometry">
            <mxPoint x="-15" y="13" as="offset" />
          </mxGeometry>
        </mxCell>
        <mxCell id="-Z-gAmvK2gQ08b9_LZs0-20" value="" style="endArrow=open;endFill=1;endSize=12;html=1;rounded=0;exitX=1;exitY=0.5;exitDx=0;exitDy=0;dashed=1;entryX=0;entryY=0.5;entryDx=0;entryDy=0;" parent="1" source="-Z-gAmvK2gQ08b9_LZs0-13" edge="1" target="-Z-gAmvK2gQ08b9_LZs0-22">
          <mxGeometry width="160" relative="1" as="geometry">
            <mxPoint x="370" y="-570" as="sourcePoint" />
            <mxPoint x="460" y="-565" as="targetPoint" />
          </mxGeometry>
        </mxCell>
        <mxCell id="-Z-gAmvK2gQ08b9_LZs0-21" value="&quot;Extends&quot;" style="edgeLabel;html=1;align=center;verticalAlign=middle;resizable=0;points=[];" parent="-Z-gAmvK2gQ08b9_LZs0-20" vertex="1" connectable="0">
          <mxGeometry x="0.125" y="-2" relative="1" as="geometry">
            <mxPoint x="-15" y="13" as="offset" />
          </mxGeometry>
        </mxCell>
        <mxCell id="-Z-gAmvK2gQ08b9_LZs0-22" value="Filtre par categorie/sous-categorie" style="ellipse;whiteSpace=wrap;html=1;" parent="1" vertex="1">
          <mxGeometry x="490" y="-690" width="130" height="70" as="geometry" />
        </mxCell>
        <mxCell id="-Z-gAmvK2gQ08b9_LZs0-23" value="Contacte le garage" style="ellipse;whiteSpace=wrap;html=1;" parent="1" vertex="1">
          <mxGeometry x="490" y="-790" width="130" height="70" as="geometry" />
        </mxCell>
        <mxCell id="-Z-gAmvK2gQ08b9_LZs0-24" value="" style="endArrow=open;endFill=1;endSize=12;html=1;rounded=0;exitX=1;exitY=0.5;exitDx=0;exitDy=0;dashed=1;" parent="1" edge="1" source="-Z-gAmvK2gQ08b9_LZs0-11">
          <mxGeometry width="160" relative="1" as="geometry">
            <mxPoint x="370" y="-655.5" as="sourcePoint" />
            <mxPoint x="490" y="-755" as="targetPoint" />
          </mxGeometry>
        </mxCell>
        <mxCell id="-Z-gAmvK2gQ08b9_LZs0-25" value="&quot;Extends&quot;" style="edgeLabel;html=1;align=center;verticalAlign=middle;resizable=0;points=[];" parent="-Z-gAmvK2gQ08b9_LZs0-24" vertex="1" connectable="0">
          <mxGeometry x="0.125" y="-2" relative="1" as="geometry">
            <mxPoint x="-15" y="13" as="offset" />
          </mxGeometry>
        </mxCell>
        <mxCell id="-Z-gAmvK2gQ08b9_LZs0-26" value="Modfier les categorie" style="ellipse;whiteSpace=wrap;html=1;" parent="1" vertex="1">
          <mxGeometry x="260" y="-350" width="140" height="60" as="geometry" />
        </mxCell>
        <mxCell id="-Z-gAmvK2gQ08b9_LZs0-27" value="" style="endArrow=none;endFill=0;endSize=12;html=1;rounded=0;" parent="1" edge="1">
          <mxGeometry width="160" relative="1" as="geometry">
            <mxPoint x="80" y="-176" as="sourcePoint" />
            <mxPoint x="320" y="-510" as="targetPoint" />
            <Array as="points">
              <mxPoint x="80" y="-480" />
              <mxPoint x="320" y="-480" />
            </Array>
          </mxGeometry>
        </mxCell>
        <mxCell id="-Z-gAmvK2gQ08b9_LZs0-29" value="Modfier les sous categorie" style="ellipse;whiteSpace=wrap;html=1;" parent="1" vertex="1">
          <mxGeometry x="480" y="-355" width="140" height="70" as="geometry" />
        </mxCell>
        <mxCell id="-Z-gAmvK2gQ08b9_LZs0-30" value="Modfier les produit" style="ellipse;whiteSpace=wrap;html=1;" parent="1" vertex="1">
          <mxGeometry x="680" y="-355" width="140" height="70" as="geometry" />
        </mxCell>
        <mxCell id="-Z-gAmvK2gQ08b9_LZs0-31" value="" style="endArrow=none;endFill=0;endSize=12;html=1;rounded=0;entryX=0;entryY=0.5;entryDx=0;entryDy=0;" parent="1" target="-Z-gAmvK2gQ08b9_LZs0-26" edge="1">
          <mxGeometry width="160" relative="1" as="geometry">
            <mxPoint x="80" y="-320" as="sourcePoint" />
            <mxPoint x="253" y="-445" as="targetPoint" />
            <Array as="points">
              <mxPoint x="80" y="-390" />
              <mxPoint x="80" y="-320" />
            </Array>
          </mxGeometry>
        </mxCell>
        <mxCell id="-Z-gAmvK2gQ08b9_LZs0-33" value="" style="endArrow=open;endFill=1;endSize=12;html=1;rounded=0;dashed=1;exitX=1;exitY=0.5;exitDx=0;exitDy=0;entryX=0;entryY=0.5;entryDx=0;entryDy=0;" parent="1" target="-Z-gAmvK2gQ08b9_LZs0-29" edge="1" source="-Z-gAmvK2gQ08b9_LZs0-26">
          <mxGeometry width="160" relative="1" as="geometry">
            <mxPoint x="425" y="-320.5" as="sourcePoint" />
            <mxPoint x="470" y="-320" as="targetPoint" />
          </mxGeometry>
        </mxCell>
        <mxCell id="-Z-gAmvK2gQ08b9_LZs0-34" value="" style="endArrow=open;endFill=1;endSize=12;html=1;rounded=0;entryX=0;entryY=0.5;entryDx=0;entryDy=0;dashed=1;exitX=1;exitY=0.5;exitDx=0;exitDy=0;" parent="1" target="-Z-gAmvK2gQ08b9_LZs0-30" edge="1" source="-Z-gAmvK2gQ08b9_LZs0-29">
          <mxGeometry width="160" relative="1" as="geometry">
            <mxPoint x="530" y="-205" as="sourcePoint" />
            <mxPoint x="400" y="-195" as="targetPoint" />
            <Array as="points" />
          </mxGeometry>
        </mxCell>
        <mxCell id="-Z-gAmvK2gQ08b9_LZs0-35" value="&quot;Extends&quot;" style="edgeLabel;html=1;align=center;verticalAlign=middle;resizable=0;points=[];" parent="1" vertex="1" connectable="0">
          <mxGeometry x="480" y="-514" as="geometry">
            <mxPoint x="-51" y="209" as="offset" />
          </mxGeometry>
        </mxCell>
        <mxCell id="-Z-gAmvK2gQ08b9_LZs0-36" value="&quot;Extends&quot;" style="edgeLabel;html=1;align=center;verticalAlign=middle;resizable=0;points=[];" parent="1" vertex="1" connectable="0">
          <mxGeometry x="700" y="-514" as="geometry">
            <mxPoint x="-51" y="209" as="offset" />
          </mxGeometry>
        </mxCell>
        <mxCell id="-Z-gAmvK2gQ08b9_LZs0-37" value="Ajoute/Suprime des occasion" style="ellipse;whiteSpace=wrap;html=1;" parent="1" vertex="1">
          <mxGeometry x="260" y="-280" width="140" height="80" as="geometry" />
        </mxCell>
        <mxCell id="-Z-gAmvK2gQ08b9_LZs0-38" value="" style="endArrow=none;endFill=0;endSize=12;html=1;rounded=0;entryX=0;entryY=0.5;entryDx=0;entryDy=0;" parent="1" target="-Z-gAmvK2gQ08b9_LZs0-37" edge="1">
          <mxGeometry width="160" relative="1" as="geometry">
            <mxPoint x="80" y="-240" as="sourcePoint" />
            <mxPoint x="230" y="-230" as="targetPoint" />
          </mxGeometry>
        </mxCell>
        <mxCell id="-Z-gAmvK2gQ08b9_LZs0-39" value="Envoye un email aux gens abonne a la newletter" style="ellipse;whiteSpace=wrap;html=1;" parent="1" vertex="1">
          <mxGeometry x="260" y="-470" width="140" height="70" as="geometry" />
        </mxCell>
        <mxCell id="-Z-gAmvK2gQ08b9_LZs0-40" value="" style="endArrow=none;endFill=0;endSize=12;html=1;rounded=0;entryX=-0.007;entryY=0.414;entryDx=0;entryDy=0;entryPerimeter=0;" parent="1" target="-Z-gAmvK2gQ08b9_LZs0-39" edge="1">
          <mxGeometry width="160" relative="1" as="geometry">
            <mxPoint x="80" y="-440" as="sourcePoint" />
            <mxPoint x="205" y="-108" as="targetPoint" />
          </mxGeometry>
        </mxCell>
        <mxCell id="-Z-gAmvK2gQ08b9_LZs0-41" value="Genere des devis" style="ellipse;whiteSpace=wrap;html=1;" parent="1" vertex="1">
          <mxGeometry x="260" y="-190" width="140" height="60" as="geometry" />
        </mxCell>
        <mxCell id="-Z-gAmvK2gQ08b9_LZs0-42" value="" style="endArrow=none;endFill=0;endSize=12;html=1;rounded=0;entryX=0;entryY=0.5;entryDx=0;entryDy=0;" parent="1" target="-Z-gAmvK2gQ08b9_LZs0-41" edge="1">
          <mxGeometry width="160" relative="1" as="geometry">
            <mxPoint x="80" y="-180" as="sourcePoint" />
            <mxPoint x="180" y="70" as="targetPoint" />
            <Array as="points">
              <mxPoint x="80" y="-160" />
            </Array>
          </mxGeometry>
        </mxCell>
      </root>
    </mxGraphModel>
  </diagram>
</mxfile>
